<svg width="24" height="24" viewBox="0 0 24 24" xmlns="http://www.w3.org/2000/svg">
    <g fill="none" fill-rule="evenodd">
        <g transform="translate(3 3)" stroke="#000" stroke-width="1.5">
            <path d="M18 9a1.946 1.946 0 0 0-1.946-1.946h-.77a6.503 6.503 0 0 0-.479-1.169l.559-.559a1.946 1.946 0 0 0-2.752-2.752l-.559.56a6.498 6.498 0 0 0-1.107-.463v-.725a1.946 1.946 0 0 0-3.892 0v.725c-.386.12-.755.277-1.107.462l-.56-.558a1.946 1.946 0 0 0-2.751 2.751l.559.56c-.195.37-.356.76-.479 1.168h-.77a1.946 1.946 0 0 0 0 3.892h.808c.117.364.265.713.44 1.046l-.558.558a1.946 1.946 0 0 0 2.752 2.752l.559-.558c.352.185.72.343 1.107.462v.848a1.946 1.946 0 1 0 3.892 0v-.848c.386-.12.755-.277 1.107-.462l.56.559a1.946 1.946 0 0 0 2.752-2.752l-.56-.56a6.53 6.53 0 0 0 .441-1.045h.808A1.946 1.946 0 0 0 18 9z" stroke-linejoin="round"/>
            <circle cx="9" cy="8.811" r="2.75"/>
        </g>
        <path d="M0 0h24v24H0z"/>
    </g>
</svg>
