<svg width="197" height="64" viewBox="0 0 197 64" fill="none" xmlns="http://www.w3.org/2000/svg">
<path d="M151.683 10.192H149.539V4.656H147.427V19.376H149.539V11.936H151.683V10.192ZM138.451 15.792H145.491V6.032H138.451V15.792ZM140.531 7.696H143.411V14.128H140.531V7.696ZM162.983 4.624V19.408H165.095V4.624H162.983ZM157.175 5.664C154.951 5.664 153.303 7.68 153.303 10.912C153.303 14.16 154.951 16.192 157.175 16.192C159.399 16.192 161.047 14.16 161.047 10.912C161.047 7.68 159.399 5.664 157.175 5.664ZM157.175 7.568C158.263 7.568 159.015 8.72 159.015 10.912C159.015 13.104 158.263 14.272 157.175 14.272C156.087 14.272 155.335 13.104 155.335 10.912C155.335 8.72 156.087 7.568 157.175 7.568ZM180.65 11.584C177.322 11.024 175.498 8.688 175.498 6.56V5.504H173.242V6.56C173.242 8.656 171.418 11.024 168.09 11.584L168.986 13.344C171.562 12.848 173.402 11.408 174.362 9.536C175.322 11.408 177.178 12.832 179.754 13.344L180.65 11.584ZM167.77 15.872V17.584H181.114V15.872H167.77ZM194.254 8.448V4.624H192.142V14.576H194.254V10.176H196.206V8.448H194.254ZM191.326 10.832C190.766 10.912 190.222 10.976 189.646 11.04V7.456H190.814V5.776H182.958V7.456H184.11V11.28H182.574L182.798 13.008C185.198 13.008 188.542 12.928 191.47 12.368L191.326 10.832ZM186.142 7.456H187.63V11.168C187.134 11.216 186.638 11.216 186.142 11.232V7.456ZM190.622 13.792H188.51V14.048C188.51 15.632 187.038 17.248 183.902 17.68L184.718 19.328C187.038 18.96 188.67 17.968 189.566 16.608C190.462 17.968 192.046 18.96 194.43 19.328L195.214 17.68C192.078 17.248 190.622 15.648 190.622 14.048V13.792Z" fill="#008FFF"/>
<path d="M38 54.8846V32.9065H43.8129V34.5939C45.3972 33.1873 47.3209 32.484 49.5841 32.484C50.9229 32.462 52.2474 32.7608 53.4455 33.355C54.5665 33.921 55.529 34.7544 56.2468 35.7806C57.1222 34.7336 58.2243 33.8969 59.4709 33.3332C60.7663 32.7605 62.1708 32.4723 63.5885 32.4884C65.1135 32.4584 66.6174 32.8455 67.9361 33.6076C69.1895 34.3454 70.2176 35.4081 70.9104 36.682C71.6528 38.0779 72.0252 39.6388 71.9924 41.2174V54.8846H66.1752V42.1123C66.1752 40.6781 65.8006 39.5459 65.0516 38.7156C64.3025 37.8853 63.2914 37.4709 62.0181 37.4724C61.1884 37.4611 60.3674 37.6414 59.6198 37.9993C58.8653 38.38 58.2277 38.9553 57.7734 39.665L57.8588 40.4249C57.8876 40.691 57.9015 40.9585 57.9005 41.2261V54.8934H52.0876V42.1123C52.0876 40.6781 51.7131 39.5459 50.964 38.7156C50.2149 37.8853 49.2038 37.4709 47.9305 37.4724C47.1165 37.4576 46.31 37.6297 45.5738 37.9753C44.87 38.3286 44.2673 38.8529 43.8216 39.4995V54.8977L38 54.8846Z" fill="#008FFF"/>
<path d="M78.1383 63.9969C77.6302 63.9969 77.1425 63.9759 76.6752 63.9338C76.2907 63.9098 75.9116 63.8313 75.5494 63.7008V58.7669C76.2069 58.8916 76.8756 58.9478 77.5447 58.9346C79.6678 58.9346 81.1389 57.9359 81.9581 55.9385L82.2976 55.0545L73.6877 32.9065H80.138L85.6136 47.8823L91.8513 32.9065H98.1308L87.9462 56.6571C87.3144 58.1792 86.4718 59.6061 85.4427 60.8964C84.6103 61.9227 83.5401 62.7333 82.3238 63.2588C80.9921 63.7798 79.569 64.0308 78.1383 63.9969Z" fill="#008FFF"/>
<path d="M117.225 55.3072C115.338 55.3187 113.459 55.0546 111.649 54.5233C110.021 54.0599 108.49 53.3099 107.128 52.309L110.011 48.4267C111.154 49.203 112.386 49.8405 113.681 50.3254C114.804 50.7371 115.99 50.9508 117.186 50.9568C118.487 50.9568 119.526 50.7391 120.305 50.3036C121.083 49.8681 121.472 49.2984 121.472 48.5944C121.48 48.3334 121.424 48.0744 121.31 47.8394C121.195 47.6044 121.026 47.4003 120.815 47.2444C120.377 46.9077 119.677 46.6689 118.715 46.5281L114.47 45.8945C112.293 45.5563 110.631 44.8464 109.485 43.765C108.339 42.6836 107.766 41.256 107.766 39.4822C107.734 38.1609 108.128 36.8641 108.889 35.7807C109.706 34.695 110.818 33.864 112.093 33.3856C113.634 32.7925 115.276 32.5026 116.927 32.5321C118.543 32.5283 120.151 32.7556 121.702 33.207C123.252 33.6622 124.72 34.3597 126.05 35.2734L123.257 39.0228C122.167 38.3241 120.988 37.7714 119.753 37.3789C118.674 37.0468 117.551 36.8758 116.421 36.8715C115.374 36.8715 114.533 37.0689 113.898 37.4638C113.261 37.8579 112.943 38.3761 112.943 39.0228C112.933 39.2926 112.989 39.5609 113.107 39.804C113.226 40.047 113.403 40.2573 113.622 40.4163C114.073 40.753 114.837 41.0056 115.913 41.174L120.156 41.7662C122.363 42.0754 124.047 42.778 125.206 43.8739C126.366 44.9698 126.945 46.3619 126.945 48.0501C126.962 49.4037 126.51 50.7218 125.666 51.7842C124.75 52.9184 123.561 53.8038 122.208 54.3578C120.631 55.0143 118.934 55.3376 117.225 55.3072Z" fill="#008FFF"/>
<path d="M129.828 63.4896V32.9065H135.555V34.7203C137.339 33.314 139.56 32.5682 141.837 32.6104C143.837 32.5575 145.812 33.0702 147.531 34.0888C149.208 35.081 150.602 36.4816 151.583 38.1583C152.6 39.9074 153.12 41.8976 153.09 43.9174C153.116 45.9263 152.585 47.9035 151.557 49.6329C150.561 51.3141 149.143 52.7096 147.441 53.6828C145.687 54.6884 143.691 55.2044 141.666 55.1765C140.58 55.1832 139.5 55.0269 138.462 54.7127C137.465 54.4081 136.516 53.9685 135.641 53.4063V63.4874L129.828 63.4896ZM140.901 50.2862C142.05 50.302 143.182 50.019 144.187 49.4653C145.155 48.9234 145.955 48.1281 146.5 47.166C147.067 46.1768 147.36 45.0559 147.35 43.9174C147.368 42.7782 147.075 41.6554 146.502 40.6688C145.944 39.7219 145.147 38.9368 144.189 38.3913C143.189 37.8231 142.055 37.5314 140.904 37.5465C139.888 37.5355 138.88 37.7142 137.932 38.0734C137.05 38.4092 136.264 38.9524 135.641 39.6563V48.2198C136.291 48.8888 137.08 49.409 137.953 49.744C138.892 50.1113 139.893 50.2954 140.901 50.2862Z" fill="#008FFF"/>
<path d="M167.382 55.3073C165.286 55.3343 163.222 54.8084 161.398 53.7831C159.647 52.8031 158.185 51.3852 157.155 49.6701C156.106 47.9327 155.562 45.9397 155.585 43.9132C155.558 41.8725 156.102 39.8645 157.155 38.1127C158.182 36.401 159.646 34.9896 161.398 34.0215C163.227 33.0136 165.29 32.5001 167.382 32.5322C169.474 32.5031 171.537 33.0196 173.365 34.0302C175.117 34.9995 176.58 36.4107 177.608 38.1214C178.661 39.8732 179.205 41.8812 179.178 43.9219C179.201 45.9455 178.665 47.9366 177.63 49.6788C176.612 51.393 175.158 52.8102 173.413 53.7875C171.573 54.8156 169.492 55.3401 167.382 55.3073ZM167.382 50.2863C168.49 50.2989 169.579 49.9968 170.52 49.4154C171.443 48.8522 172.203 48.0617 172.728 47.1204C173.275 46.1252 173.553 45.0058 173.534 43.8718C173.549 42.7493 173.264 41.643 172.706 40.6668C172.177 39.734 171.418 38.9502 170.5 38.3893C169.576 37.8236 168.509 37.5293 167.423 37.5401C166.318 37.5262 165.23 37.8187 164.282 38.3849C163.358 38.9376 162.597 39.7233 162.077 40.6624C161.533 41.6434 161.256 42.7478 161.271 43.8675C161.251 45.0029 161.529 46.1239 162.077 47.1204C162.598 48.0599 163.352 48.8514 164.267 49.4197C165.2 50.0008 166.281 50.3018 167.382 50.2863Z" fill="#008FFF"/>
<path d="M192.291 55.2222C189.858 55.2222 188.012 54.667 186.752 53.5566C185.492 52.4461 184.863 50.8356 184.864 48.725V37.7163H180.324V32.9066H184.864V27.3064L190.635 26V32.9174H197V37.7272H190.635V47.5144C190.635 48.5305 190.869 49.2563 191.336 49.6918C191.803 50.1272 192.588 50.345 193.691 50.345C194.223 50.3496 194.754 50.3139 195.281 50.2383C195.805 50.1552 196.323 50.0359 196.831 49.8812V54.6061C196.112 54.8286 195.372 54.9839 194.624 55.0698C193.85 55.169 193.071 55.2199 192.291 55.2222Z" fill="#008FFF"/>
<g clip-path="url(#clip0_324_1407)">
<path d="M8.61158 61.2798C8.61158 61.2798 -8.16325 42.962 5.11518 31.6921C7.12087 30.0828 10.637 28.9951 13.3474 28.9951C15.5979 28.9339 17.8194 29.5178 19.7537 30.6789C21.6405 31.8108 23.2094 33.4092 24.3121 35.3229C25.4564 37.3167 26.0423 39.5861 26.0073 41.8891C26.037 44.1813 25.4403 46.4375 24.2825 48.4106C23.1611 50.3276 21.566 51.919 19.6527 53.0298C17.6797 54.1757 15.437 54.7651 13.1601 54.736C12.6788 54.7389 12.2039 54.8473 11.7682 55.0535C11.3325 55.2598 10.9466 55.559 10.637 55.9305C10.1531 56.6782 9.92872 57.5663 9.99881 58.4562C9.99881 59.1615 10.6468 60.5298 10.637 61.1457C10.642 61.3376 10.5813 61.5253 10.4651 61.6773C10.3488 61.8293 10.1842 61.9363 9.99881 61.9802C9.40499 62.1391 8.61158 61.2798 8.61158 61.2798ZM13.133 47.5315C14.0835 47.5463 15.0185 47.2878 15.8286 46.7865C16.6187 46.2996 17.2705 45.6152 17.7209 44.7997C18.1904 43.9348 18.4289 42.9618 18.4133 41.976C18.4268 40.9994 18.1818 40.0367 17.7037 39.1871C17.2506 38.3736 16.5993 37.6898 15.8114 37.2004C15.0181 36.7061 14.1025 36.4478 13.17 36.4553C12.2209 36.4459 11.2881 36.704 10.4768 37.2004C9.68252 37.6827 9.02884 38.3681 8.58202 39.1871C8.11576 40.0407 7.87799 41.0018 7.8921 41.976C7.87562 42.9616 8.11335 43.9346 8.58202 44.7997C9.03001 45.6122 9.67624 46.296 10.4596 46.7865C11.2613 47.2878 12.1897 47.5448 13.133 47.5265V47.5315Z" fill="#008FFF"/>
</g>
<defs>
<clipPath id="clip0_324_1407">
<rect width="26" height="33" fill="white" transform="translate(0 29)"/>
</clipPath>
</defs>
</svg>
